<?xml version="1.0" encoding="utf-8" ?>
<svg xmlns="http://www.w3.org/2000/svg" xmlns:ev="http://www.w3.org/2001/xml-events" xmlns:xlink="http://www.w3.org/1999/xlink" baseProfile="full" height="430.39759821454936px" version="1.1" width="812.4871863670273px">
  <defs/>
  <path d="M 60.0 370.39759821454936 L 203.12179659175683 370.39759821454936 L 179.55756660557626 302.2725228076823 Q 207.83781740761643 84.67758544979844 184.06089829587842 60.0 L 109.06089829587842 60.0 Q 122.9603985030814 148.49892901543495 79.06089829587842 163.99857202057993 Q 93.11345995910376 170.46193639090484 83.5642299861806 302.2725228076823 L 60.0 370.39759821454936 z" fill="rgb(255,217,194)" stroke="black"/>
  <text fill="rgb(9,33,173)" font-size="25" x="103.34661258159272" y="235.76268772357767">Rback</text>
  <path d="M 263.12179659175683 370.39759821454936 L 376.24359318351367 370.39759821454936 L 352.6793631973331 302.2725228076823 Q 380.9596139993733 84.67758544979844 357.18269488763525 60.0 L 312.18269488763525 60.0 Q 326.0821950948382 148.49892901543495 282.18269488763525 163.99857202057993 Q 296.23525655086064 170.46193639090484 286.68602657793747 302.2725228076823 L 263.12179659175683 370.39759821454936 z" fill="rgb(255,217,194)" stroke="black"/>
  <text fill="rgb(9,33,173)" font-size="25" x="293.61126631620664" y="235.76268772357767">Lfront</text>
  <path d="M 436.24359318351367 370.39759821454936 L 549.3653897752705 370.39759821454936 L 525.8011597890899 302.2725228076823 Q 516.2519298161667 170.46193639090484 530.304491479392 163.99857202057993 Q 486.4049912721891 148.49892901543492 500.3044914793921 60.0 L 455.3044914793921 60.0 Q 431.52757236765405 84.67758544979844 459.80782316969425 302.2725228076823 L 436.24359318351367 370.39759821454936 z" fill="rgb(255,217,194)" stroke="black"/>
  <text fill="rgb(9,33,173)" font-size="25" x="468.87592005082064" y="235.76268772357767">Rfront</text>
  <path d="M 609.3653897752705 370.39759821454936 L 752.4871863670273 370.39759821454936 L 728.9229563808467 302.2725228076823 Q 719.3737264079236 170.46193639090484 733.426288071149 163.99857202057993 Q 689.526787863946 148.49892901543495 703.426288071149 60.0 L 628.426288071149 60.0 Q 604.649368959411 84.67758544979844 632.9296197614511 302.2725228076823 L 609.3653897752705 370.39759821454936 z" fill="rgb(255,217,194)" stroke="black"/>
  <text fill="rgb(9,33,173)" font-size="25" x="659.1405737854348" y="235.76268772357767">Lback</text>
</svg>
